<?xml version="1.0" encoding="utf-8"?><svg xmlns="http://www.w3.org/2000/svg" xmlns:xlink="http://www.w3.org/1999/xlink"><symbol id="header-logo" viewBox="0 0 501.75 295.59" xmlns="http://www.w3.org/2000/svg"><defs><style>.acls-1{fill:#640d0d}.acls-2{fill:#025c66}</style></defs><title>logo vektor — копия</title><path class="acls-1" d="M220.13 335.57h-8.83l-1-8.83h-10.2l-1.1 8.83h-8.26L201.91 260h7.92zM201 319.28h8.37l-2.83-24.21c-.34-2.49-.68-6.11-.79-8.6h-.45c-.11 2.49-.45 6.11-.79 8.6zm44 16.29V260h12.45c8.6 0 13.8 5.2 13.8 12.79v15c0 3.06-2.49 7.92-5.88 9.16v.45c3.39 1.24 5.88 5.54 5.88 8.94v16c0 7.92-5.2 13.24-13.8 13.24zm8.71-68.11v26.25h2.72c4.52 0 5.88-2.38 5.88-7.35v-11.55c0-5.32-1.36-7.35-5.88-7.35zm0 60.64h2.72c4.52 0 5.88-1.47 5.88-6.79v-13c0-5-1.36-7.35-5.88-7.35h-2.72zm42.44-68.1H325v7.47h-10.07v68.11h-8.71v-68.12h-10.07zm53.06 59.73v-44.35c0-10.86 5.09-16.07 13.58-16.07s13.58 5.32 13.58 16.18v44.24c0 10.86-5.09 16.52-13.58 16.52s-13.58-5.66-13.58-16.52zm18.44 2.94v-49.9c0-3.62-2-5.77-4.87-5.77s-4.87 2.15-4.87 5.88v49.78c0 3.62 2 5.88 4.87 5.88s4.88-2.24 4.88-5.87zm54.65-55.21h-9.73v68.11h-8.71V260H431v75.58h-8.7zm45.25 34.06v34.06h-8.71V260h12.45c8.49 0 14.26 5.32 14.26 14v14.26c0 7.92-5.77 13.24-14.26 13.24zm0-34.06V294h2.71c4.53 0 6.34-1.58 6.34-6.56v-12.63c0-5.32-1.81-7.35-6.34-7.35zm43.67 52.27v-44.35c0-10.86 5.09-16.07 13.58-16.07s13.58 5.32 13.58 16.18v44.24c0 10.86-5.09 16.52-13.58 16.52s-13.58-5.66-13.58-16.52zm18.44 2.94v-49.9c0-3.62-2-5.77-4.87-5.77s-4.86 2.15-4.86 5.88v49.78c0 3.62 2 5.88 4.86 5.88s4.87-2.24 4.87-5.87zm50.12-18.21l-5.2 17.65v13.46h-8.71V260h8.71v24.89c0 3.28 0 9.16-.23 12.9h.45c.68-3.62 2.15-9.39 2.94-12.45l7-25.34h8.49l-8.15 27.38 8.83 48.2h-8.71zm65.28 31.11h-8.82l-1-8.83H625l-1.13 8.83h-8.26L626.84 260h7.92zm-19.12-16.29h8.37l-2.83-24.21c-.34-2.49-.68-6.11-.79-8.6h-.45c-.11 2.49-.45 6.11-.79 8.6zM663.61 260h28.85v7.47h-10.07v68.11h-8.71v-68.12h-10.07z" transform="translate(-190.71 -175)"/><path class="acls-2" d="M550.91 216.45h-.32a3.15 3.15 0 0 1-2.81-3.44 19.07 19.07 0 0 0-4.57-13.78c-3.07-3.39-7.72-5.1-13.79-5.1a3.14 3.14 0 1 1 0-6.29c7.95 0 14.17 2.42 18.48 7.2a25.25 25.25 0 0 1 6.13 18.6 3.14 3.14 0 0 1-3.12 2.81zM444.55 194.1h-40.86c-22.91 0-26.82-11.94-27-12.45a3.14 3.14 0 1 1 6-1.84c.1.26 3.09 8 21 8h40.86a3.14 3.14 0 0 1 0 6.29zm-66.38 45.6a18.5 18.5 0 0 1-17-25.93l.82-1.88h32.3l.82 1.88a18.5 18.5 0 0 1-17 25.93zm-11.86-21.53a12 12 0 0 0-.38 3 12.24 12.24 0 0 0 24.48 0 12 12 0 0 0-.38-3z" transform="translate(-190.71 -175)"/><path class="acls-2" d="M557.33 195c-4.32-4.78-10.54-7.2-18.48-7.2h-80.64c-2.73-3.67-10.7-12.82-22.52-12.82h-36.08c-37.15 0-71.91 27.53-71.91 40 0 10.1 7.11 14.8 10.88 15.87l.42.12h27.37a15.33 15.33 0 0 1-3.14-6.29H340c-1.43-.56-6-2.86-6-9.71 0-7.79 31-33.74 65.63-33.74h36.08c10.95 0 18.14 11.23 18.21 11.34l.92 1.48h84c6.08 0 10.72 1.72 13.79 5.1 5.06 5.57 4.66 14.17 4.59 15.37-.29 1.32-2.52 10.16-9.78 10.16h-16a15.33 15.33 0 0 1-3.14 6.29h19.18c10.31 0 15-10.08 16-15.4v-.27c.03-.45 1.14-12.2-6.15-20.3z" transform="translate(-190.71 -175)"/><path class="acls-2" d="M390 231h114.64a15.33 15.33 0 0 1-3.14-6.29H393.12A15.33 15.33 0 0 1 390 231z" transform="translate(-190.71 -175)"/><path class="acls-2" d="M516.45 239.7a18.47 18.47 0 0 1-11.46-33l.86-.68h21.21l.86.68a18.47 18.47 0 0 1-11.46 33zm-8.35-27.4a12.1 12.1 0 0 0-3.9 8.87 12.24 12.24 0 0 0 24.48 0 12.1 12.1 0 0 0-3.9-8.87z" transform="translate(-190.71 -175)"/><path class="acls-2" d="M268.75 28.01l-3.27 12.02"/><path class="acls-2" d="M456.19 218.17a3.08 3.08 0 0 1-.83-.11 3.14 3.14 0 0 1-2.21-3.86l3.27-12a3.14 3.14 0 1 1 6.06 1.65l-3.27 12a3.14 3.14 0 0 1-3.02 2.32z" transform="translate(-190.71 -175)"/><path class="acls-2" d="M278.18 28.01l-3.27 12.02"/><path class="acls-2" d="M465.62 218.17a3.08 3.08 0 0 1-.83-.11 3.14 3.14 0 0 1-2.21-3.86l3.27-12a3.14 3.14 0 1 1 6.06 1.65l-3.27 12a3.14 3.14 0 0 1-3.02 2.32z" transform="translate(-190.71 -175)"/><path class="acls-2" d="M13.65 64.7h479.8"/><path class="acls-2" d="M684.16 242.84H204.35a3.14 3.14 0 1 1 0-6.29h479.81a3.14 3.14 0 0 1 0 6.29z" transform="translate(-190.71 -175)"/><path class="acls-2" d="M13.65 180.98h479.8"/><path class="acls-2" d="M684.16 359.12H204.35a3.14 3.14 0 1 1 0-6.29h479.81a3.14 3.14 0 0 1 0 6.29z" transform="translate(-190.71 -175)"/><path class="acls-2" d="M119.92 212.4h267.25"/><path class="acls-2" d="M577.88 390.54H310.63a3.14 3.14 0 0 1 0-6.29h267.25a3.14 3.14 0 1 1 0 6.29z" transform="translate(-190.71 -175)"/><path class="acls-2" d="M45.07 52.13h83.83"/><path class="acls-2" d="M319.61 230.27h-83.83a3.14 3.14 0 1 1 0-6.29h83.83a3.14 3.14 0 1 1 0 6.29z" transform="translate(-190.71 -175)"/><path class="acls-2" d="M381.34 52.13h83.83"/><path class="acls-2" d="M655.88 230.27H572a3.14 3.14 0 1 1 0-6.29h83.83a3.14 3.14 0 1 1 0 6.29zm-213.3 240.31a83.59 83.59 0 0 1-83.5-83.5v-2.83h167v2.83a83.59 83.59 0 0 1-83.5 83.5zm-77.79-80.67a77.84 77.84 0 0 0 155.58 0z" transform="translate(-190.71 -175)"/><path class="acls-2" d="M457.05 440.63V448H429.8v-7.4h9.48v-27.5l-9.9 3.95v-8.15l11.7-4.77h6.84v36.5zm-5.72-75.75c-1.17 0-1.79.8-1.79 3.13s.62 3.16 1.79 3.16 1.79-.78 1.79-3.16-.65-3.13-1.79-3.13z" transform="translate(-190.71 -175)"/><path class="acls-2" d="M453 352.83h-20.8a18.86 18.86 0 0 0 0 37.71H453a18.86 18.86 0 0 0 0-37.71zm-9.27 28.65h-7l-4.12-14.08a50.62 50.62 0 0 1 .73 8.09v6h-4.94v-19.3h6.87l4.29 14.13a44.84 44.84 0 0 1-.76-8v-6.18h4.94zm13.73 0h-12.24v-4.16h12.21zm-6.11-7.07c-4 0-6.35-2.58-6.35-6.4a6.35 6.35 0 1 1 12.7 0c-.02 3.83-2.35 6.4-6.37 6.4zM348.41 205.87h-13l-5.3 6.29h18.3a3.14 3.14 0 0 0 0-6.29z" transform="translate(-190.71 -175)"/><path class="acls-2" d="M422.61 368.54H266.09a3.14 3.14 0 1 0 0 6.29h156.52zm199.82 0H460.56v6.29h161.87a3.14 3.14 0 0 0 0-6.29z" transform="translate(-190.71 -175)"/></symbol><symbol id="icon-download" viewBox="0 0 32 30.7" xmlns="http://www.w3.org/2000/svg"><style>.bst0,.bst1{fill:none;stroke:#fff;stroke-linecap:round;stroke-miterlimit:10}.bst1{stroke-linejoin:round}</style><path class="bst0" d="M16 12.8v17"/><path class="bst1" d="M20.5 25.8l-4.6 4.4-4.4-4.4m0-6.5h-7s-4-.6-4-5.5 5-6 5-6-.4-2.3 1-3c2.6-1.4 4 1 4 1s3.1-6.9 9-5 5 8 5 8 7.1-.5 7 5.3c-.1 5.7-5 5.2-5 5.2h-6"/></symbol><symbol viewBox="0 0 69 71" id="sec5-icon1" xmlns="http://www.w3.org/2000/svg"><defs><style>.ccls-1{fill:#fff;fill-rule:evenodd}</style></defs><path id="cList_View" data-name="List View" class="ccls-1" d="M464.088 4635.56h-43.515a1.92 1.92 0 1 1 0-3.84h43.515a1.92 1.92 0 0 1 0 3.84zm0-13.42h-43.515a1.92 1.92 0 1 1 0-3.84h43.515a1.92 1.92 0 0 1 0 3.84zm0-13.44h-43.515a1.915 1.915 0 1 1 0-3.83h43.515a1.915 1.915 0 1 1 0 3.83zm0-13.42h-43.515a1.915 1.915 0 1 1 0-3.83h43.515a1.915 1.915 0 1 1 0 3.83zm0-13.43h-43.515a1.92 1.92 0 1 1 0-3.84h43.515a1.92 1.92 0 0 1 0 3.84zM410.442 4649h-9.6a3.843 3.843 0 0 1-3.841-3.84v-9.59a3.835 3.835 0 0 1 3.841-3.83h9.6a3.834 3.834 0 0 1 3.84 3.83v9.59a3.843 3.843 0 0 1-3.84 3.84zm0-13.43h-9.6v9.59h9.6zm0-13.43h-9.6a3.841 3.841 0 0 1-3.841-3.83v-9.59a3.843 3.843 0 0 1 3.841-3.84h9.6a3.843 3.843 0 0 1 3.84 3.84v9.59a3.841 3.841 0 0 1-3.84 3.83zm0-13.42h-9.6v9.59h9.6zm0-13.43h-9.6a3.843 3.843 0 0 1-3.841-3.84v-9.59a3.843 3.843 0 0 1 3.841-3.84h9.6a3.843 3.843 0 0 1 3.84 3.84v9.59a3.843 3.843 0 0 1-3.84 3.84zm0-13.43h-9.6v9.59h9.6zm10.131 63.3h43.515a1.915 1.915 0 1 1 0 3.83h-43.515a1.915 1.915 0 1 1 0-3.83z" transform="translate(-397 -4578)"/></symbol><symbol viewBox="0 0 73 69" id="sec5-icon2" xmlns="http://www.w3.org/2000/svg"><defs><style>.dcls-1{fill:#fff;fill-rule:evenodd}</style></defs><path id="dInvoice" class="dcls-1" d="M784.181 4590.46h-.873v57.53l-2.156-2.12h-.235l-6.305-6.22-6.868 6.77-.117-.12-.21.21-6.867-6.77-6.867 6.77-.212-.21-.211.21-6.867-6.77-6.867 6.77-.21-.21-.117.12-6.868-6.77-6.305 6.22h-.235l-2.156 2.12v-57.53h-.42c-3.207 0-6.215-2.58-6.215-5.74s3.008-5.73 6.215-5.73h60.966a5.736 5.736 0 1 1 0 11.47zm.5-8.14h-62.289a2.405 2.405 0 1 0 0 4.81h1.243v-4.81h3.332l-.015 57.78 5.263-5.18.116.11.117-.11 6.868 6.77 6.866-6.77.211.21.212-.21 6.866 6.77 6.867-6.77.212.21.211-.21 6.866 6.77 6.868-6.77.117.11.117-.11 5.262 5.18v-52.47H780v-5.31h3.3v4.81h1.368a2.405 2.405 0 1 0 .008-4.81zm-50.156 12.97h27.659a1.55 1.55 0 1 1 0 3.1H734.52a1.55 1.55 0 1 1 0-3.1zm0 9.8h17.714a1.55 1.55 0 1 1 0 3.1H734.52a1.55 1.55 0 1 1 0-3.1zm0 9.81h29.316a1.55 1.55 0 1 1 0 3.1H734.52a1.55 1.55 0 1 1 0-3.1zm0 9.8h26a1.55 1.55 0 1 1 0 3.1h-26a1.55 1.55 0 1 1-.005-3.1z" transform="translate(-717 -4579)"/></symbol><symbol viewBox="0 0 79 69" id="sec5-icon3" xmlns="http://www.w3.org/2000/svg"><defs><style>.ecls-1{fill:#fff;fill-rule:evenodd}</style></defs><path id="eComment" class="ecls-1" d="M1059.58 4648a1.74 1.74 0 0 1-1.49-.84 1.791 1.791 0 0 1 .05-1.95c4.27-6.23 4.85-9.19 4.59-10.57-.2-1.05-.96-1.6-2.19-2.43-.23-.15-.46-.3-.68-.46-9.4-5.57-14.87-14.03-14.87-23.14 0-16.33 17.73-29.62 39.51-29.62s39.51 13.29 39.51 29.62-17.72 29.61-39.51 29.61a54 54 0 0 1-5.78-.35 9.75 9.75 0 0 0-.61-.02c-1.26 0-2.45.23-5.38 3.08-3.8 3.7-8.87 6.47-12.9 7.06a2.008 2.008 0 0 1-.25.01zm24.92-65.45c-19.85 0-36 11.69-36 26.06 0 7.81 4.84 15.16 13.26 20.15.31.22.51.35.72.49 1.35.9 3.21 2.15 3.7 4.72.44 2.29-.36 5.21-2.5 9.03a25.593 25.593 0 0 0 6.62-4.63c3.93-3.84 5.96-4.19 8.7-4.05a50.433 50.433 0 0 0 5.5.34c19.85 0 35.99-11.69 35.99-26.05s-16.14-26.06-35.99-26.06zm-28.97 28.6a1.765 1.765 0 0 1-1.76-1.77c0-11.85 12.78-21.49 28.49-21.49a1.78 1.78 0 0 1 0 3.56c-13.77 0-24.97 8.04-24.97 17.93a1.765 1.765 0 0 1-1.76 1.77z" transform="translate(-1045 -4579)"/></symbol><symbol viewBox="0 0 77.03 69.03" id="sec5-icon4" xmlns="http://www.w3.org/2000/svg"><defs><style>.fcls-1{fill:#fff;fill-rule:evenodd}</style></defs><path id="fHome" class="fcls-1" d="M1443.65 4608.35a1.744 1.744 0 0 1-2.44.29l-4.32-3.25v39.87a1.731 1.731 0 0 1-1.73 1.73h-22.04a1.733 1.733 0 0 1-1.23-.51 2.587 2.587 0 0 1-1.05-1.22v-18.96h-10.41v18.96a1.731 1.731 0 0 1-1.73 1.73h-22.55a1.733 1.733 0 0 1-1.74-1.73v-40.05l-4.62 3.44a1.762 1.762 0 0 1-1.06.36 1.725 1.725 0 0 1-1.06-3.09l37-27.58a1.727 1.727 0 0 1 2.13.01l36.55 27.57a1.734 1.734 0 0 1 .3 2.43zm-37.93-26.45l-27.89 20.76a1.108 1.108 0 0 1 .05.25v40.62h19.08v-18.96a1.739 1.739 0 0 1 1.74-1.73h13.88a1.776 1.776 0 0 1 1.23.51 1.725 1.725 0 0 1 .5 1.22v18.96h19.11v-39.99a1.675 1.675 0 0 1 .14-.67z" transform="translate(-1367 -4577.97)"/></symbol></svg>