<svg id="Слой_1" data-name="Слой 1" xmlns="http://www.w3.org/2000/svg" viewBox="0 0 501.75 295.59"><defs><style>.cls-1{fill:#640d0d;}.cls-2{fill:#025c66;}</style></defs><title>logo vektor — копия</title><path class="cls-1" d="M220.13,335.57H211.3l-1-8.83H200.1L199,335.57h-8.26L201.91,260h7.92ZM201,319.28h8.37l-2.83-24.21c-.34-2.49-.68-6.11-.79-8.6h-.45c-.11,2.49-.45,6.11-.79,8.6Z" transform="translate(-190.71 -175)"/><path class="cls-1" d="M245,335.57V260h12.45c8.6,0,13.8,5.2,13.8,12.79v15c0,3.06-2.49,7.92-5.88,9.16v.45c3.39,1.24,5.88,5.54,5.88,8.94v16c0,7.92-5.2,13.24-13.8,13.24Zm8.71-68.11v26.25h2.72c4.52,0,5.88-2.38,5.88-7.35V274.81c0-5.32-1.36-7.35-5.88-7.35Zm0,60.64h2.72c4.52,0,5.88-1.47,5.88-6.79v-13c0-5-1.36-7.35-5.88-7.35h-2.72Z" transform="translate(-190.71 -175)"/><path class="cls-1" d="M296.15,260H325v7.47H314.93v68.11h-8.71V267.46H296.15Z" transform="translate(-190.71 -175)"/><path class="cls-1" d="M349.21,319.73V275.38c0-10.86,5.09-16.07,13.58-16.07s13.58,5.32,13.58,16.18v44.24c0,10.86-5.09,16.52-13.58,16.52S349.21,330.59,349.21,319.73Zm18.44,2.94v-49.9c0-3.62-2-5.77-4.87-5.77s-4.87,2.15-4.87,5.88v49.78c0,3.62,2,5.88,4.87,5.88S367.66,326.3,367.66,322.67Z" transform="translate(-190.71 -175)"/><path class="cls-1" d="M422.3,267.46h-9.73v68.11h-8.71V260H431v75.58H422.3Z" transform="translate(-190.71 -175)"/><path class="cls-1" d="M467.55,301.52v34.06h-8.71V260h12.45c8.49,0,14.26,5.32,14.26,14v14.26c0,7.92-5.77,13.24-14.26,13.24Zm0-34.06V294h2.71c4.53,0,6.34-1.58,6.34-6.56V274.81c0-5.32-1.81-7.35-6.34-7.35Z" transform="translate(-190.71 -175)"/><path class="cls-1" d="M511.22,319.73V275.38c0-10.86,5.09-16.07,13.58-16.07s13.58,5.32,13.58,16.18v44.24c0,10.86-5.09,16.52-13.58,16.52S511.22,330.59,511.22,319.73Zm18.44,2.94v-49.9c0-3.62-2-5.77-4.87-5.77s-4.86,2.15-4.86,5.88v49.78c0,3.62,2,5.88,4.86,5.88S529.66,326.3,529.66,322.67Z" transform="translate(-190.71 -175)"/><path class="cls-1" d="M579.78,304.46l-5.2,17.65v13.46h-8.71V260h8.71v24.89c0,3.28,0,9.16-.23,12.9h.45c.68-3.62,2.15-9.39,2.94-12.45l7-25.34h8.49l-8.15,27.38,8.83,48.2h-8.71Z" transform="translate(-190.71 -175)"/><path class="cls-1" d="M645.06,335.57h-8.82l-1-8.83H625l-1.13,8.83h-8.26L626.84,260h7.92Zm-19.12-16.29h8.37l-2.83-24.21c-.34-2.49-.68-6.11-.79-8.6h-.45c-.11,2.49-.45,6.11-.79,8.6Z" transform="translate(-190.71 -175)"/><path class="cls-1" d="M663.61,260h28.85v7.47H682.39v68.11h-8.71V267.46H663.61Z" transform="translate(-190.71 -175)"/><path class="cls-2" d="M550.91,216.45l-.32,0a3.15,3.15,0,0,1-2.81-3.44,19.07,19.07,0,0,0-4.57-13.78c-3.07-3.39-7.72-5.1-13.79-5.1a3.14,3.14,0,1,1,0-6.29c7.95,0,14.17,2.42,18.48,7.2a25.25,25.25,0,0,1,6.13,18.6A3.14,3.14,0,0,1,550.91,216.45Z" transform="translate(-190.71 -175)"/><path class="cls-2" d="M444.55,194.1H403.69c-22.91,0-26.82-11.94-27-12.45a3.14,3.14,0,1,1,6-1.84c.1.26,3.09,8,21,8h40.86a3.14,3.14,0,0,1,0,6.29Z" transform="translate(-190.71 -175)"/><path class="cls-2" d="M378.17,239.7a18.5,18.5,0,0,1-17-25.93l.82-1.88h32.3l.82,1.88a18.5,18.5,0,0,1-17,25.93Zm-11.86-21.53a12,12,0,0,0-.38,3,12.24,12.24,0,0,0,24.48,0,12,12,0,0,0-.38-3Z" transform="translate(-190.71 -175)"/><path class="cls-2" d="M557.33,195c-4.32-4.78-10.54-7.2-18.48-7.2H458.21c-2.73-3.67-10.7-12.82-22.52-12.82H399.61c-37.15,0-71.91,27.53-71.91,40,0,10.1,7.11,14.8,10.88,15.87l.42.12h27.37a15.33,15.33,0,0,1-3.14-6.29H340c-1.43-.56-6-2.86-6-9.71,0-7.79,31-33.74,65.63-33.74h36.08c10.95,0,18.14,11.23,18.21,11.34l.92,1.48h84c6.08,0,10.72,1.72,13.79,5.1,5.06,5.57,4.66,14.17,4.59,15.37-.29,1.32-2.52,10.16-9.78,10.16h-16a15.33,15.33,0,0,1-3.14,6.29h19.18c10.31,0,15-10.08,16-15.4l0-.27C563.51,214.85,564.62,203.1,557.33,195Z" transform="translate(-190.71 -175)"/><path class="cls-2" d="M390,231H504.64a15.33,15.33,0,0,1-3.14-6.29H393.12A15.33,15.33,0,0,1,390,231Z" transform="translate(-190.71 -175)"/><path class="cls-2" d="M516.45,239.7a18.47,18.47,0,0,1-11.46-33l.86-.68h21.21l.86.68a18.47,18.47,0,0,1-11.46,33ZM508.1,212.3a12.1,12.1,0,0,0-3.9,8.87,12.24,12.24,0,0,0,24.48,0,12.1,12.1,0,0,0-3.9-8.87Z" transform="translate(-190.71 -175)"/><line class="cls-2" x1="268.75" y1="28.01" x2="265.48" y2="40.03"/><path class="cls-2" d="M456.19,218.17a3.08,3.08,0,0,1-.83-.11,3.14,3.14,0,0,1-2.21-3.86l3.27-12a3.14,3.14,0,1,1,6.06,1.65l-3.27,12A3.14,3.14,0,0,1,456.19,218.17Z" transform="translate(-190.71 -175)"/><line class="cls-2" x1="278.18" y1="28.01" x2="274.91" y2="40.03"/><path class="cls-2" d="M465.62,218.17a3.08,3.08,0,0,1-.83-.11,3.14,3.14,0,0,1-2.21-3.86l3.27-12a3.14,3.14,0,1,1,6.06,1.65l-3.27,12A3.14,3.14,0,0,1,465.62,218.17Z" transform="translate(-190.71 -175)"/><line class="cls-2" x1="13.65" y1="64.7" x2="493.45" y2="64.7"/><path class="cls-2" d="M684.16,242.84H204.35a3.14,3.14,0,1,1,0-6.29H684.16a3.14,3.14,0,0,1,0,6.29Z" transform="translate(-190.71 -175)"/><line class="cls-2" x1="13.65" y1="180.98" x2="493.45" y2="180.98"/><path class="cls-2" d="M684.16,359.12H204.35a3.14,3.14,0,1,1,0-6.29H684.16a3.14,3.14,0,0,1,0,6.29Z" transform="translate(-190.71 -175)"/><line class="cls-2" x1="119.92" y1="212.4" x2="387.17" y2="212.4"/><path class="cls-2" d="M577.88,390.54H310.63a3.14,3.14,0,0,1,0-6.29H577.88a3.14,3.14,0,1,1,0,6.29Z" transform="translate(-190.71 -175)"/><line class="cls-2" x1="45.07" y1="52.13" x2="128.9" y2="52.13"/><path class="cls-2" d="M319.61,230.27H235.78a3.14,3.14,0,1,1,0-6.29h83.83a3.14,3.14,0,1,1,0,6.29Z" transform="translate(-190.71 -175)"/><line class="cls-2" x1="381.34" y1="52.13" x2="465.17" y2="52.13"/><path class="cls-2" d="M655.88,230.27H572a3.14,3.14,0,1,1,0-6.29h83.83a3.14,3.14,0,1,1,0,6.29Z" transform="translate(-190.71 -175)"/><path class="cls-2" d="M442.58,470.58a83.59,83.59,0,0,1-83.5-83.5v-2.83h167v2.83A83.59,83.59,0,0,1,442.58,470.58Zm-77.79-80.67a77.84,77.84,0,0,0,155.58,0Z" transform="translate(-190.71 -175)"/><path class="cls-2" d="M457.05,440.63V448H429.8v-7.4h9.48V413.1l-9.9,3.95V408.9l11.7-4.77h6.84v36.5Z" transform="translate(-190.71 -175)"/><path class="cls-2" d="M451.33,364.88c-1.17,0-1.79.8-1.79,3.13s.62,3.16,1.79,3.16,1.79-.78,1.79-3.16S452.47,364.88,451.33,364.88Z" transform="translate(-190.71 -175)"/><path class="cls-2" d="M453,352.83h-20.8a18.86,18.86,0,0,0,0,37.71H453a18.86,18.86,0,0,0,0-37.71Zm-9.27,28.65h-7l-4.12-14.08a50.62,50.62,0,0,1,.73,8.09v6h-4.94V362.19h6.87l4.29,14.13a44.84,44.84,0,0,1-.76-8v-6.18h4.94Zm13.73,0H445.22v-4.16h12.21Zm-6.11-7.07c-4,0-6.35-2.58-6.35-6.4a6.35,6.35,0,1,1,12.7,0C457.68,371.84,455.35,374.41,451.33,374.41Z" transform="translate(-190.71 -175)"/><path class="cls-2" d="M348.41,205.87h-13l-5.3,6.29h18.3a3.14,3.14,0,0,0,0-6.29Z" transform="translate(-190.71 -175)"/><path class="cls-2" d="M422.61,368.54H266.09a3.14,3.14,0,1,0,0,6.29H422.61Z" transform="translate(-190.71 -175)"/><path class="cls-2" d="M622.43,368.54H460.56v6.29H622.43a3.14,3.14,0,0,0,0-6.29Z" transform="translate(-190.71 -175)"/></svg>