<svg xmlns="http://www.w3.org/2000/svg" width="77.03" height="69.03" viewBox="0 0 77.03 69.03">
  <metadata><?xpacket begin="﻿" id="W5M0MpCehiHzreSzNTczkc9d"?>
<x:xmpmeta xmlns:x="adobe:ns:meta/" x:xmptk="Adobe XMP Core 5.6-c138 79.159824, 2016/09/14-01:09:01        ">
   <rdf:RDF xmlns:rdf="http://www.w3.org/1999/02/22-rdf-syntax-ns#">
      <rdf:Description rdf:about=""/>
   </rdf:RDF>
</x:xmpmeta>
                                                                                                    
                                                                                                    
                                                                                                    
                                                                                                    
                                                                                                    
                                                                                                    
                                                                                                    
                                                                                                    
                                                                                                    
                                                                                                    
                                                                                                    
                                                                                                    
                                                                                                    
                                                                                                    
                                                                                                    
                                                                                                    
                                                                                                    
                                                                                                    
                                                                                                    
                                                                                                    
                           
<?xpacket end="w"?></metadata>
<defs>
    <style>
      .cls-1 {
        fill: #fff;
        fill-rule: evenodd;
      }
    </style>
  </defs>
  <path id="Home" class="cls-1" d="M1443.65,4608.35a1.744,1.744,0,0,1-2.44.29l-4.32-3.25v39.87a1.731,1.731,0,0,1-1.73,1.73h-22.04a1.733,1.733,0,0,1-1.23-.51,2.587,2.587,0,0,1-1.05-1.22V4626.3h-10.41v18.96a1.731,1.731,0,0,1-1.73,1.73h-22.55a1.733,1.733,0,0,1-1.74-1.73v-40.05l-4.62,3.44a1.762,1.762,0,0,1-1.06.36,1.725,1.725,0,0,1-1.06-3.09l37-27.58a1.727,1.727,0,0,1,2.13.01l36.55,27.57A1.734,1.734,0,0,1,1443.65,4608.35Zm-37.93-26.45-27.89,20.76a1.108,1.108,0,0,1,.05.25v40.62h19.08v-18.96a1.739,1.739,0,0,1,1.74-1.73h13.88a1.776,1.776,0,0,1,1.23.51,1.725,1.725,0,0,1,.5,1.22v18.96h19.11v-39.99a1.675,1.675,0,0,1,.14-0.67Z" transform="translate(-1367 -4577.97)"/>
</svg>
