<svg xmlns="http://www.w3.org/2000/svg" width="73" height="69" viewBox="0 0 73 69">
  <metadata><?xpacket begin="﻿" id="W5M0MpCehiHzreSzNTczkc9d"?>
<x:xmpmeta xmlns:x="adobe:ns:meta/" x:xmptk="Adobe XMP Core 5.6-c138 79.159824, 2016/09/14-01:09:01        ">
   <rdf:RDF xmlns:rdf="http://www.w3.org/1999/02/22-rdf-syntax-ns#">
      <rdf:Description rdf:about=""/>
   </rdf:RDF>
</x:xmpmeta>
                                                                                                    
                                                                                                    
                                                                                                    
                                                                                                    
                                                                                                    
                                                                                                    
                                                                                                    
                                                                                                    
                                                                                                    
                                                                                                    
                                                                                                    
                                                                                                    
                                                                                                    
                                                                                                    
                                                                                                    
                                                                                                    
                                                                                                    
                                                                                                    
                                                                                                    
                                                                                                    
                           
<?xpacket end="w"?></metadata>
<defs>
    <style>
      .cls-1 {
        fill: #fff;
        fill-rule: evenodd;
      }
    </style>
  </defs>
  <path id="Invoice" class="cls-1" d="M784.181,4590.46h-0.873v57.53l-2.156-2.12h-0.235l-6.305-6.22-6.868,6.77-0.117-.12-0.21.21-6.867-6.77-6.867,6.77-0.212-.21-0.211.21-6.867-6.77-6.867,6.77-0.21-.21-0.117.12-6.868-6.77-6.305,6.22h-0.235l-2.156,2.12v-57.53h-0.42c-3.207,0-6.215-2.58-6.215-5.74s3.008-5.73,6.215-5.73h60.966A5.736,5.736,0,1,1,784.181,4590.46Zm0.5-8.14H722.392a2.405,2.405,0,1,0,0,4.81h1.243v-4.81h3.332l-0.015,57.78,5.263-5.18,0.116,0.11,0.117-.11,6.868,6.77,6.866-6.77,0.211,0.21,0.212-.21,6.866,6.77,6.867-6.77,0.212,0.21,0.211-.21,6.866,6.77,6.868-6.77,0.117,0.11,0.117-.11,5.262,5.18v-52.47H780v-5.31h3.3v4.81h1.368A2.405,2.405,0,1,0,784.676,4582.32Zm-50.156,12.97h27.659a1.55,1.55,0,1,1,0,3.1H734.52A1.55,1.55,0,1,1,734.52,4595.29Zm0,9.8h17.714a1.55,1.55,0,1,1,0,3.1H734.52A1.55,1.55,0,1,1,734.52,4605.09Zm0,9.81h29.316a1.55,1.55,0,1,1,0,3.1H734.52A1.55,1.55,0,1,1,734.52,4614.9Zm0,9.8h26a1.55,1.55,0,1,1,0,3.1h-26A1.55,1.55,0,1,1,734.52,4624.7Z" transform="translate(-717 -4579)"/>
</svg>
