<svg xmlns="http://www.w3.org/2000/svg" width="69" height="71" viewBox="0 0 69 71">
  <metadata><?xpacket begin="﻿" id="W5M0MpCehiHzreSzNTczkc9d"?>
<x:xmpmeta xmlns:x="adobe:ns:meta/" x:xmptk="Adobe XMP Core 5.6-c138 79.159824, 2016/09/14-01:09:01        ">
   <rdf:RDF xmlns:rdf="http://www.w3.org/1999/02/22-rdf-syntax-ns#">
      <rdf:Description rdf:about=""/>
   </rdf:RDF>
</x:xmpmeta>
                                                                                                    
                                                                                                    
                                                                                                    
                                                                                                    
                                                                                                    
                                                                                                    
                                                                                                    
                                                                                                    
                                                                                                    
                                                                                                    
                                                                                                    
                                                                                                    
                                                                                                    
                                                                                                    
                                                                                                    
                                                                                                    
                                                                                                    
                                                                                                    
                                                                                                    
                                                                                                    
                           
<?xpacket end="w"?></metadata>
<defs>
    <style>
      .cls-1 {
        fill: #fff;
        fill-rule: evenodd;
      }
    </style>
  </defs>
  <path id="List_View" data-name="List View" class="cls-1" d="M464.088,4635.56H420.573a1.92,1.92,0,1,1,0-3.84h43.515A1.92,1.92,0,0,1,464.088,4635.56Zm0-13.42H420.573a1.92,1.92,0,1,1,0-3.84h43.515A1.92,1.92,0,0,1,464.088,4622.14Zm0-13.44H420.573a1.915,1.915,0,1,1,0-3.83h43.515A1.915,1.915,0,1,1,464.088,4608.7Zm0-13.42H420.573a1.915,1.915,0,1,1,0-3.83h43.515A1.915,1.915,0,1,1,464.088,4595.28Zm0-13.43H420.573a1.92,1.92,0,1,1,0-3.84h43.515A1.92,1.92,0,0,1,464.088,4581.85ZM410.442,4649h-9.6a3.843,3.843,0,0,1-3.841-3.84v-9.59a3.835,3.835,0,0,1,3.841-3.83h9.6a3.834,3.834,0,0,1,3.84,3.83v9.59A3.843,3.843,0,0,1,410.442,4649Zm0-13.43h-9.6v9.59h9.6Zm0-13.43h-9.6a3.841,3.841,0,0,1-3.841-3.83v-9.59a3.843,3.843,0,0,1,3.841-3.84h9.6a3.843,3.843,0,0,1,3.84,3.84v9.59A3.841,3.841,0,0,1,410.442,4622.14Zm0-13.42h-9.6v9.59h9.6Zm0-13.43h-9.6a3.843,3.843,0,0,1-3.841-3.84v-9.59a3.843,3.843,0,0,1,3.841-3.84h9.6a3.843,3.843,0,0,1,3.84,3.84v9.59A3.843,3.843,0,0,1,410.442,4595.29Zm0-13.43h-9.6v9.59h9.6Zm10.131,63.3h43.515a1.915,1.915,0,1,1,0,3.83H420.573A1.915,1.915,0,1,1,420.573,4645.16Z" transform="translate(-397 -4578)"/>
</svg>
