<svg xmlns="http://www.w3.org/2000/svg" width="79" height="69" viewBox="0 0 79 69">
  <metadata><?xpacket begin="﻿" id="W5M0MpCehiHzreSzNTczkc9d"?>
<x:xmpmeta xmlns:x="adobe:ns:meta/" x:xmptk="Adobe XMP Core 5.6-c138 79.159824, 2016/09/14-01:09:01        ">
   <rdf:RDF xmlns:rdf="http://www.w3.org/1999/02/22-rdf-syntax-ns#">
      <rdf:Description rdf:about=""/>
   </rdf:RDF>
</x:xmpmeta>
                                                                                                    
                                                                                                    
                                                                                                    
                                                                                                    
                                                                                                    
                                                                                                    
                                                                                                    
                                                                                                    
                                                                                                    
                                                                                                    
                                                                                                    
                                                                                                    
                                                                                                    
                                                                                                    
                                                                                                    
                                                                                                    
                                                                                                    
                                                                                                    
                                                                                                    
                                                                                                    
                           
<?xpacket end="w"?></metadata>
<defs>
    <style>
      .cls-1 {
        fill: #fff;
        fill-rule: evenodd;
      }
    </style>
  </defs>
  <path id="Comment" class="cls-1" d="M1059.58,4648a1.74,1.74,0,0,1-1.49-.84,1.791,1.791,0,0,1,.05-1.95c4.27-6.23,4.85-9.19,4.59-10.57-0.2-1.05-.96-1.6-2.19-2.43-0.23-.15-0.46-0.3-0.68-0.46-9.4-5.57-14.87-14.03-14.87-23.14,0-16.33,17.73-29.62,39.51-29.62s39.51,13.29,39.51,29.62-17.72,29.61-39.51,29.61a54,54,0,0,1-5.78-.35c-0.15-.01-0.38-0.02-0.61-0.02-1.26,0-2.45.23-5.38,3.08-3.8,3.7-8.87,6.47-12.9,7.06A2.008,2.008,0,0,1,1059.58,4648Zm24.92-65.45c-19.85,0-36,11.69-36,26.06,0,7.81,4.84,15.16,13.26,20.15,0.31,0.22.51,0.35,0.72,0.49,1.35,0.9,3.21,2.15,3.7,4.72,0.44,2.29-.36,5.21-2.5,9.03a25.593,25.593,0,0,0,6.62-4.63c3.93-3.84,5.96-4.19,8.7-4.05a50.433,50.433,0,0,0,5.5.34c19.85,0,35.99-11.69,35.99-26.05S1104.35,4582.55,1084.5,4582.55Zm-28.97,28.6a1.765,1.765,0,0,1-1.76-1.77c0-11.85,12.78-21.49,28.49-21.49a1.78,1.78,0,0,1,0,3.56c-13.77,0-24.97,8.04-24.97,17.93A1.765,1.765,0,0,1,1055.53,4611.15Z" transform="translate(-1045 -4579)"/>
</svg>
